<?xml version="1.0" encoding="UTF-8"?> <svg xmlns="http://www.w3.org/2000/svg" xmlns:xlink="http://www.w3.org/1999/xlink" height="100px" width="100px" fill="#000000" x="0px" y="0px" viewBox="0 0 90 90" xml:space="preserve"><path d="M30.37,38.985c-0.156,0-0.313-0.036-0.461-0.113c-1.511-0.789-2.98-0.789-4.491,0c-0.49,0.255-1.094,0.065-1.349-0.424 c-0.255-0.49-0.065-1.094,0.424-1.349c2.104-1.097,4.237-1.096,6.34,0c0.49,0.255,0.68,0.859,0.424,1.349 C31.079,38.789,30.73,38.985,30.37,38.985z"></path><path d="M40.664,38.985c-0.156,0-0.313-0.036-0.461-0.113c-1.511-0.789-2.98-0.789-4.491,0c-0.489,0.255-1.094,0.065-1.349-0.424 c-0.255-0.49-0.065-1.094,0.424-1.349c2.104-1.097,4.237-1.096,6.34,0c0.49,0.255,0.68,0.859,0.424,1.349 C41.373,38.789,41.024,38.985,40.664,38.985z"></path><path d="M32.803,51.246c-1.538,0-3.072-0.726-4.563-2.178c-0.396-0.385-0.404-1.019-0.019-1.414 c0.385-0.396,1.019-0.403,1.414-0.018c2.188,2.13,4.146,2.131,6.351-0.003c0.396-0.383,1.029-0.374,1.414,0.023 c0.384,0.396,0.374,1.03-0.023,1.414C35.878,50.521,34.339,51.246,32.803,51.246z"></path><path d="M53.628,62.434l-7.39-1.245c-2.378-0.4-4.104-2.28-4.104-4.493L42.1,55.21c0.112-0.105,0.233-0.196,0.343-0.305 c0.29-0.288,0.56-0.596,0.831-0.902c3.178-0.58,5.66-3.162,6.092-6.389h1.483c1.538,0,2.789-1.251,2.789-2.789v-7.542 c0-1.538-1.251-2.789-2.789-2.789h-2.33l0.004-0.062c0.293-0.146,0.503-0.423,0.548-0.751c1.002-7.15-0.051-12.569-3.127-16.106 c-2.774-3.19-7.126-4.807-12.937-4.807c-5.818,0-10.834,2.025-13.76,5.557c-2.922,3.526-3.829,8.355-2.695,14.352 c0.05,0.263,0.208,0.478,0.416,0.624l0.089,1.194h-2.286c-1.538,0-2.789,1.251-2.789,2.789v7.542c0,1.538,1.251,2.789,2.789,2.789 h3.866c0.987,2.904,2.671,5.511,4.884,7.599l-0.036,1.505c0,2.19-1.726,4.07-4.104,4.471l-7.389,1.245 c-4.377,0.737-7.555,4.275-7.555,8.413v15.886C4.438,88.534,5.99,90,7.898,90h49.822c1.908,0,3.461-1.466,3.461-3.268V70.847 C61.182,66.709,58.005,63.171,53.628,62.434z M45.627,50.692c0.242-0.436,0.475-0.879,0.681-1.332c0.26-0.571,0.48-1.155,0.68-1.746 h0.357C47.122,48.825,46.503,49.896,45.627,50.692z M50.849,36.495c0.436,0,0.789,0.354,0.789,0.789v7.542 c0,0.435-0.354,0.789-0.789,0.789h-3.314c0.174-0.8,0.313-1.609,0.382-2.435l0.463-6.684H50.849z M45.055,20.57 c0.089-0.166,0.177-0.333,0.263-0.502c1.779,2.771,2.443,6.656,1.978,11.589C44.39,29.278,42.396,26.66,45.055,20.57z M20.788,19.602c2.545-3.071,6.999-4.833,12.22-4.833c4.834,0,8.495,1.195,10.896,3.556c-0.223,0.442-0.425,0.872-0.608,1.289 c-4.611,8.561-13.356,12.778-24.91,11.944C17.575,26.525,18.381,22.505,20.788,19.602z M14.771,45.614 c-0.435,0-0.789-0.354-0.789-0.789v-7.542c0-0.435,0.354-0.789,0.789-0.789h2.435l0.498,6.698c0.069,0.822,0.199,1.628,0.372,2.421 H14.771z M19.698,43.036l-0.702-9.442c9.765,0.533,17.625-2.378,22.854-8.367c-0.143,4.146,2.305,6.5,4.723,8.411l-0.65,9.389 c-0.16,1.911-0.643,3.763-1.435,5.506c-0.418,0.92-0.924,1.807-1.502,2.636c-0.227,0.325-0.476,0.637-0.727,0.947 c-0.111,0.007-0.222,0.017-0.335,0.017h-5.495c-0.552,0-1,0.447-1,1s0.448,1,1,1h3.877c-1.566,1.38-3.344,2.459-5.326,3.176 c-1.399,0.506-2.941,0.506-4.341,0C24.534,55.102,20.239,49.496,19.698,43.036z M25.48,56.827c1.362,0.973,2.861,1.777,4.479,2.361 c0.919,0.332,1.885,0.499,2.851,0.499s1.932-0.167,2.851-0.499c1.615-0.584,3.104-1.394,4.479-2.376 c0.033,2.141,1.169,4.064,2.947,5.243c-6.891,6.214-13.636,6.215-20.549-0.001C24.315,60.876,25.451,58.955,25.48,56.827z M12.324,64.406l7.389-1.245c0.294-0.05,0.579-0.121,0.858-0.203c4.069,3.862,8.16,5.812,12.249,5.812 c4.089,0,8.174-1.95,12.23-5.811c0.279,0.081,0.563,0.153,0.856,0.203l7.39,1.245c3.41,0.574,5.886,3.282,5.886,6.44v6.332h-5.787 c-1.513,0-2.972,0.593-4.004,1.626c-0.951,0.953-1.474,2.197-1.472,3.503c0.004,3.124,0.003,4.801,0,5.692H17.643 c-0.003-0.892-0.003-2.569,0.001-5.691c0.002-1.307-0.521-2.551-1.473-3.504c-1.032-1.033-2.491-1.626-4.003-1.626h-5.73v-6.332 C6.438,67.688,8.913,64.98,12.324,64.406z M6.438,86.732v-7.554h5.73c0.985,0,1.928,0.379,2.588,1.039 c0.574,0.574,0.889,1.315,0.888,2.088c-0.004,3.122-0.003,4.792-0.001,5.694H7.898C7.093,88,6.438,87.432,6.438,86.732z M57.721,88 H49.92c0.003-0.903,0.003-2.573-0.001-5.695c-0.001-0.771,0.313-1.513,0.888-2.087c0.659-0.66,1.603-1.039,2.588-1.039h5.787v7.554 C59.182,87.432,58.526,88,57.721,88z"></path><path d="M58.642,32.673c-0.146,0-0.291-0.032-0.428-0.096c-0.35-0.166-0.572-0.518-0.572-0.904v-6.649 c-2.633-0.473-4.637-2.781-4.637-5.547V5.636C53.005,2.528,55.533,0,58.642,0h21.284c3.108,0,5.637,2.528,5.637,5.636v13.84 c0,3.108-2.528,5.636-5.637,5.636h-11.72l-8.93,7.333C59.094,32.595,58.869,32.673,58.642,32.673z M58.642,2 c-2.005,0-3.637,1.631-3.637,3.636v13.84c0,2.005,1.632,3.636,3.637,3.636c0.553,0,1,0.448,1,1v5.445l7.571-6.218 c0.179-0.147,0.403-0.227,0.635-0.227h12.078c2.005,0,3.637-1.631,3.637-3.636V5.636C83.563,3.631,81.931,2,79.926,2H58.642z"></path><path d="M68.833,18.997c-0.253,0-0.497-0.096-0.683-0.27l-5.238-4.898c-0.403-0.377-0.425-1.01-0.048-1.414 c0.379-0.405,1.011-0.424,1.413-0.047l4.463,4.173l7.101-8.574c0.354-0.424,0.982-0.485,1.408-0.132 c0.426,0.352,0.484,0.982,0.133,1.408l-7.778,9.392c-0.176,0.212-0.432,0.343-0.707,0.36C68.875,18.996,68.854,18.997,68.833,18.997 z"></path></svg> 