<?xml version="1.0" encoding="UTF-8"?> <svg xmlns="http://www.w3.org/2000/svg" xmlns:xlink="http://www.w3.org/1999/xlink" width="239px" height="129px" viewBox="0 0 239 129"><!-- Generator: Sketch 63.1 (92452) - https://sketch.com --><title>Group Copy</title><desc>Created with Sketch.</desc><defs><polygon id="path-1" points="0.000739165353 0.219079457 210.639951 0.219079457 210.639951 114.331395 0.000739165353 114.331395"></polygon></defs><g id="Page-1" stroke="none" stroke-width="1" fill="none" fill-rule="evenodd"><g id="Artboard" transform="translate(-1203.000000, -1972.000000)"><g id="Group-Copy" transform="translate(1203.000000, 1972.000000)"><g id="Group-6"><path d="M65.3782138,51.5298319 L21.0695352,51.3948073 C24.5232535,44.4275405 29.7409943,38.5281952 36.3238706,34.1951347 C43.6202841,29.4005356 52.1009711,26.8645291 60.846757,26.8645291 L65.3782138,26.8645291 L65.3782138,51.5298319 Z M33.5836895,30.1051183 C25.1228229,35.6754947 18.6861227,43.5732034 14.9722606,52.9414522 L13.6467662,56.282696 L70.3333333,56.4545455 L70.3333333,21.9545455 L60.846757,21.9545455 C51.1198574,21.9545455 41.6927426,24.7753311 33.5836895,30.1051183 L33.5836895,30.1051183 Z" id="Fill-1" fill="#000000"></path><g id="Group-5"><mask id="mask-2" fill="white"><use xlink:href="#path-1"></use></mask><g id="Clip-4"></g><g id="Fill-3" mask="url(#mask-2)" fill="#000000"><g transform="translate(-0.696517, -0.318182)"><path d="M206.409438,52.4403621 L87.1746751,52.4403621 L87.1746751,12.78974 L87.1746751,5.44036205 L206.409438,5.44036205 L206.409438,52.4403621 Z M206.409438,86.6160985 L196.04634,86.6160985 L196.04634,94.8729202 L183.928956,94.8729202 C182.724116,86.4788117 175.472904,79.999364 166.711331,79.999364 C157.949758,79.999364 150.698546,86.4788117 149.493706,94.8729202 L87.1746751,94.8729202 L87.1746751,57.2023969 L206.409438,57.2023969 L206.409438,86.6160985 Z M82.2469061,54.748395 L82.2469061,57.2023969 L82.2469061,94.8729202 L60.6953083,94.8729202 C59.5840963,87.1505365 53.3011909,80.8696644 45.1629803,80.0827167 C35.8790635,79.2050617 27.5733088,85.7678621 26.2649861,94.8729202 L5.6250256,94.8729202 L5.6250256,73.8606818 C5.6250256,60.2129008 10.6070001,47.0480752 19.654384,36.7858853 C30.3796733,24.6212923 45.8577957,17.6466314 62.1218974,17.6466314 L82.2469061,17.6466314 L82.2469061,54.748395 Z M42.2728438,109.690091 C35.4232449,109.025721 30.3895288,102.940973 31.0523137,96.1232109 C31.7200264,89.3079008 37.8206045,84.2944803 44.6849867,84.961302 C51.5370495,85.6232206 56.5707656,91.7104202 55.9055168,98.5257303 C55.2378041,105.338589 49.117515,110.3373 42.2728438,109.690091 L42.2728438,109.690091 Z M82.2469061,0.537261276 L82.2469061,12.7435307 L62.1218974,12.7435307 C44.4410622,12.7435307 27.6102671,20.326176 15.9487017,33.5547419 C6.11287473,44.7092962 0.697256578,59.0238989 0.697256578,73.8606818 L0.697256578,99.776021 L26.2600584,99.776021 C27.3737342,107.495953 33.6541758,113.781728 41.7948502,114.568676 C42.3664714,114.62261 42.9282371,114.649577 43.4900027,114.649577 C52.0791041,114.649577 59.4682938,108.322126 60.6953083,99.776021 L82.2469061,99.776021 L87.1746751,99.776021 L145.562189,99.6363636 C146.767029,108.028021 157.949758,114.649577 166.711331,114.649577 C175.472904,114.649577 182.724116,108.167678 183.928956,99.776021 L200.974109,99.776021 L200.974109,91.5191993 L211.337207,91.5191993 L211.337207,57.2023969 L211.337207,52.1448485 L211.337207,0.537261276 L82.2469061,0.537261276 Z"></path></g></g></g></g><g id="Vehicle-finance-2" transform="translate(134.000000, 24.000000)"><polygon id="Path" fill="#E9EBF2" points="81 19 81 102 65.9766366 101.554738 5.71292073 101.554738 5.71292073 5.55473837 71.7129207 5.55473837"></polygon><polygon id="Path" fill="#000000" fill-rule="nonzero" points="54.46875 2.1875 54.46875 22.09375 74.375 22.09375"></polygon><path d="M13.125,55.34375 L63.4375,55.34375 C64.75,55.34375 65.625,54.46875 65.625,53.15625 C65.625,51.84375 64.75,50.96875 63.4375,50.96875 L13.125,50.96875 C11.8125,50.96875 10.9375,51.84375 10.9375,53.15625 C10.9375,54.46875 12.03125,55.34375 13.125,55.34375 Z" id="Path" fill="#000000" fill-rule="nonzero"></path><path d="M40.6875,85.09375 L13.125,85.09375 C11.8125,85.09375 10.9375,85.96875 10.9375,87.28125 C10.9375,88.59375 11.8125,89.46875 13.125,89.46875 L40.46875,89.46875 C41.78125,89.46875 42.65625,88.59375 42.65625,87.28125 C42.875,86.1875 41.78125,85.09375 40.6875,85.09375 Z" id="Path" fill="#000000" fill-rule="nonzero"></path><rect id="Rectangle" fill="#000000" fill-rule="nonzero" x="13.125" y="24.9375" width="16.1875" height="20.34375"></rect><path d="M80.9375,55.78125 C79.40625,55.78125 78.09375,56 76.5625,56.21875 L76.5625,26.6875 L49.875,26.6875 L49.875,0 L6.78125,0 C3.0625,0 0,3.0625 0,7 L0,98.21875 C0,101.9375 3.0625,105 6.78125,105 L69.78125,105 C71.53125,105 73.28125,104.34375 74.59375,103.03125 C74.59375,103.03125 74.59375,103.03125 74.59375,103.03125 C76.5625,103.6875 78.75,103.90625 80.9375,103.90625 C94.28125,103.90625 105,93.1875 105,79.84375 C105,66.5 94.28125,55.78125 80.9375,55.78125 Z M6.5625,98.4375 L6.5625,6.5625 L43.3125,6.5625 L43.3125,26.6875 C43.3125,30.40625 46.375,33.25 49.875,33.25 L70,33.25 L70,58.40625 C67.8125,59.5 65.84375,60.8125 64.3125,62.5625 C64.09375,62.34375 63.65625,62.34375 63.4375,62.34375 L13.125,62.34375 C11.8125,62.34375 10.9375,63.21875 10.9375,64.53125 C10.9375,65.84375 11.8125,66.71875 13.125,66.71875 L60.8125,66.71875 C59.5,68.90625 58.40625,71.3125 57.75,73.71875 L13.125,73.71875 C11.8125,73.71875 10.9375,74.59375 10.9375,75.90625 C10.9375,77.21875 11.8125,78.09375 13.125,78.09375 L56.875,78.09375 C56.875,78.75 56.875,79.40625 56.875,79.84375 C56.875,87.28125 60.375,94.0625 65.625,98.4375 L6.5625,98.4375 L6.5625,98.4375 Z M80.9375,99.53125 C70,99.53125 61.25,90.78125 61.25,79.84375 C61.25,68.90625 70,60.15625 80.9375,60.15625 C91.875,60.15625 100.625,68.90625 100.625,79.84375 C100.625,90.78125 91.875,99.53125 80.9375,99.53125 Z" id="Shape" fill="#000000" fill-rule="nonzero"></path><path d="M94.28125,70.21875 C93.40625,69.34375 92.09375,69.34375 91.21875,70.21875 L76.78125,84.65625 L70.65625,78.75 C69.78125,77.875 68.46875,77.875 67.59375,78.75 C66.71875,79.625 66.71875,80.9375 67.59375,81.8125 L75.25,89.46875 C75.6875,89.90625 76.34375,90.125 76.78125,90.125 C77.4375,90.125 77.875,89.90625 78.3125,89.46875 L94.28125,73.5 C95.15625,72.625 95.15625,71.09375 94.28125,70.21875 Z" id="Path" fill="#000000" fill-rule="nonzero"></path></g></g></g></g></svg> 