<?xml version="1.0" encoding="UTF-8"?> <svg xmlns="http://www.w3.org/2000/svg" xmlns:xlink="http://www.w3.org/1999/xlink" height="100px" width="100px" fill="#000000" x="0px" y="0px" viewBox="0 0 64 64" style="enable-background:new 0 0 64 64;" xml:space="preserve"><g><path d="M47,9H26V7h1c0.553,0,1-0.448,1-1V2c0-0.552-0.447-1-1-1H13c-0.553,0-1,0.448-1,1v4c0,0.552,0.447,1,1,1h1v2.685 c-2.361,1.126-4,3.53-4,6.315v40c0,3.859,3.141,7,7,7h30c3.859,0,7-3.141,7-7V16C54,12.14,50.859,9,47,9z M52,16v15.586l-4-4V18 c0-1.654-1.346-3-3-3h-9.586l-4-4H47C49.757,11,52,13.243,52,16z M46,25.586L37.414,17H45c0.552,0,1,0.449,1,1V25.586z M14,3h12v2 h-1H15h-1V3z M16,7h8v2h-7c-0.34,0-0.672,0.033-1,0.08V7z M47,61H17c-2.757,0-5-2.243-5-5V16c0-2.757,2.243-5,5-5h11.586L52,34.414 V56C52,58.757,49.757,61,47,61z"></path><path d="M27.707,13.293C27.52,13.105,27.266,13,27,13h-9c-2.206,0-4,1.794-4,4v38c0,2.206,1.794,4,4,4h28c2.206,0,4-1.794,4-4V36 c0-0.266-0.105-0.52-0.293-0.707L27.707,13.293z M48,55c0,1.103-0.897,2-2,2H18c-1.103,0-2-0.897-2-2V17c0-1.103,0.897-2,2-2h8.586 L48,36.414V55z"></path><path d="M24,45.748c0,3.692,2.646,6.789,6.154,7.202c0.277,0.032,0.555,0.049,0.83,0.049c1.715,0,3.38-0.623,4.665-1.766 C37.144,49.905,38,47.998,38,46v-0.252c0-1.966-0.497-3.916-1.438-5.64l-4.684-8.587c-0.35-0.643-1.406-0.643-1.756,0l-4.684,8.586 C24.497,41.832,24,43.782,24,45.748z M27.194,41.065L31,34.089l3.806,6.978C35.587,42.497,36,44.116,36,45.748V46 c0,1.427-0.612,2.789-1.68,3.738c-1.081,0.961-2.48,1.396-3.932,1.226C27.928,50.674,26,48.383,26,45.748 C26,44.116,26.413,42.497,27.194,41.065z"></path><path d="M35,46h-2c0,1.103-0.897,2-2,2v2C33.206,50,35,48.206,35,46z"></path></g></svg> 