<?xml version="1.0" encoding="UTF-8"?> <svg xmlns="http://www.w3.org/2000/svg" xmlns:xlink="http://www.w3.org/1999/xlink" height="100px" width="100px" fill="#000000" x="0px" y="0px" viewBox="0 0 66 66" xml:space="preserve"><g><g><path d="M59.2,40.1c-1.7-1.8-8.6-4.5-11.4-5.6v-3.7c2-2,2.8-4.4,3-5.1c1.7-2.1,3.3-5.1,1-6.6l0.2-2.5l0.9,0c0.7,0,1.2-0.8,0.9-1.4 c0-0.1-0.4-0.8-1.3-1.3V8.3c0-1.3-0.6-2.6-1.7-3.3c-2.2-1.5-6.4-4-10.8-4C35.5,1,31.2,3.5,29,5c-1.1,0.7-1.7,2-1.7,3.3v5.5 C26.4,14.3,26,15,26,15.1c-0.3,0.6,0.1,1.4,0.9,1.4l0.9,0l0.2,2.5c-0.5,0.3-0.9,0.8-1,1.4c-0.4,1.3,0.3,3,2.1,5.2 c0.2,0.8,1,3.1,3,5.1v3.7c-3.3,1.3-9.9,4-11.4,5.6c-0.6,0.7-1.1,1.4-1.5,2.1c-1-0.3-2-0.4-3.1-0.4C9.5,41.8,4.3,47,4.3,53.4 C4.3,59.7,9.5,65,16,65c5.2,0,9.7-3.5,11.1-8.4c0.4,0,0.6,0,0.5,0c1.8,0,8.9,0,33,0c0.6,0,1-0.4,1-1v-9.4 C61.7,44,60.9,41.9,59.2,40.1z M48.4,36.9l-4.9,6.4l-2.2-2.1l5.6-5L48.4,36.9z M39.9,39.9l-5.9-5.2v-2.3c1.5,0.9,3.4,1.6,5.9,1.6 c2.5,0,4.4-0.6,5.9-1.6v2.3L39.9,39.9z M29.3,8.3c0-0.7,0.3-1.3,0.9-1.7C32.1,5.3,36,3,39.8,3c3.8,0,7.7,2.3,9.7,3.7 c0.5,0.4,0.9,1,0.9,1.7v4.5c-6.6-3.3-14.5-3.3-21.1,0V8.3z M49.6,14.6h-9.8h-9.8C36.2,11.5,43.5,11.5,49.6,14.6z M30.6,24.6 c-0.9-1.1-2.7-3.5-1.3-4c0,0,0.1-0.1,0.2-0.1c0.5-0.3,0.4-0.8,0.4-0.9l-0.2-2.9h10.2H50c-0.2,2.6-0.6,3.6,0.4,3.9 c1.4,0.5-0.4,2.9-1.3,4c-0.1,0.1-0.2,0.3-0.2,0.4c-0.1,0.3-1.7,7-9,7C32.3,32,30.9,24.9,30.6,24.6z M32.8,36.3l5.6,5l-2.2,2.1 l-4.9-6.4L32.8,36.3z M17.7,53.4c0,0.9-0.8,1.7-1.7,1.7c-1,0-1.7-0.8-1.7-1.7c0-0.9,0.8-1.7,1.7-1.7 C16.9,51.7,17.7,52.4,17.7,53.4z M7.2,57.3c-0.5-1.2-0.8-2.5-0.8-3.9c0-5,3.8-9.1,8.6-9.6v6c-1.6,0.4-2.7,1.9-2.7,3.6 c0,0.3,0,0.6,0.1,0.9L7.2,57.3z M16,63c-3.2,0-6-1.6-7.8-4l5.2-3c0.7,0.7,1.6,1.1,2.6,1.1c1,0,1.9-0.4,2.6-1.1l5.2,3 C22,61.4,19.2,63,16,63z M24.7,57.3l-5.2-3c0.1-0.3,0.1-0.6,0.1-0.9c0-1.7-1.2-3.1-2.7-3.6v-6c4.8,0.5,8.6,4.6,8.6,9.6 C25.6,54.8,25.3,56.1,24.7,57.3z M59.5,54.6c0,0-0.1,0-0.2,0C59.4,54.6,59.4,54.6,59.5,54.6c-0.1,0-0.2,0-0.3,0 c-0.1,0-0.1,0-0.1,0c-1.7,0-8.5,0-31.6,0c0-0.4,0.1-0.8,0.1-1.2c0-4.6-2.7-8.6-6.7-10.5c0.3-0.5,0.6-1,1.1-1.4 c0.9-1,4.7-2.7,7.4-3.8l5.9,7.7c0.4,0.5,1,0.5,1.5,0.1l3.1-2.9l3.1,2.9c0.5,0.4,1.1,0.3,1.5-0.1l5.9-7.7c2.6,1,6.5,2.8,7.4,3.8 c1.3,1.4,2,3,1.9,4.7v8.4C59.6,54.6,59.5,54.6,59.5,54.6z"></path></g><g><path d="M40.4,47.1h-1c-0.6,0-1,0.4-1,1c0,0.6,0.4,1,1,1h1c0.6,0,1-0.4,1-1C41.4,47.5,40.9,47.1,40.4,47.1z"></path></g><g><path d="M40.4,51.2h-1c-0.6,0-1,0.4-1,1s0.4,1,1,1h1c0.6,0,1-0.4,1-1S40.9,51.2,40.4,51.2z"></path></g></g></svg> 