<?xml version="1.0" encoding="UTF-8"?> <svg xmlns="http://www.w3.org/2000/svg" xmlns:xlink="http://www.w3.org/1999/xlink" width="100" height="100" viewBox="0 0 100 100"><defs><clipPath id="clip-Artboard_1"><rect width="100" height="100"></rect></clipPath></defs><g id="Artboard_1" data-name="Artboard – 1" clip-path="url(#clip-Artboard_1)"><g id="Group_2965" data-name="Group 2965" transform="translate(-14505.602 -5980.376)"><path id="Union_112" data-name="Union 112" d="M1.387,88.752A1.387,1.387,0,0,1,0,87.365V71.882l2.773,1.79V85.978H61.017V2.773H49.923V8.32h6.934a1.387,1.387,0,0,1,1.387,1.387V47.149h0V68.07a1.321,1.321,0,0,1-.029.184.117.117,0,0,0,0,.019l-.022.08v.012a.8.8,0,0,1-.031.086c0,.007-.007.015-.01.024l-.029.065-.011.022a.862.862,0,0,1-.042.079l-.011.019a.656.656,0,0,1-.039.061.175.175,0,0,1-.017.022q-.025.037-.054.072l-.01.011c-.017.019-.033.042-.053.061l-.018.019a.83.83,0,0,1-.068.065L42.547,82.842l-.05.043-.018.015-.044.028a.356.356,0,0,1-.035.025l-.017.012-.033.022L42.331,83l-.053.031h0c-.036.019-.073.039-.111.055h0a.993.993,0,0,1-.115.044h0a1.128,1.128,0,0,1-.112.031h-.011l-.036.007h-.049l-.042.007a1.615,1.615,0,0,1-.2.029H6.934a1.387,1.387,0,0,1-1.387-1.387V71.8L8.32,70.129v10.3h31.9V67.951A1.387,1.387,0,0,1,41.6,66.564H55.47V11.094H49.923v2.773a2.773,2.773,0,0,1-2.773,2.774H16.641a2.774,2.774,0,0,1-2.774-2.774V11.094H8.32V28.567l-2.774-.925V9.707A1.387,1.387,0,0,1,6.934,8.32h6.934V2.773H2.773V25.952L0,27.639V2.773A2.773,2.773,0,0,1,2.773,0H61.017A2.773,2.773,0,0,1,63.79,2.773v83.2a2.774,2.774,0,0,1-2.773,2.774Zm41.6-10.069,3.547-3.223,6.733-6.122H42.989ZM16.641,13.867H47.149V2.773H16.641Z" transform="translate(14533.412 5986)"></path><path id="Path_3683" data-name="Path 3683" d="M60.282,16h-31.9A1.387,1.387,0,0,0,27,17.387v10.3h2.773V18.774H58.9V38.188H33.055v2.774H60.282a1.387,1.387,0,0,0,1.387-1.387V17.387A1.387,1.387,0,0,0,60.282,16Z" transform="translate(14521.668 5992.188)"></path><rect id="Rectangle_1471" data-name="Rectangle 1471" width="28.283" height="3.03" transform="translate(14558.171 6038.951)"></rect><rect id="Rectangle_1473" data-name="Rectangle 1473" width="31.313" height="3.03" transform="translate(14555.141 6047.032)"></rect><rect id="Rectangle_1475" data-name="Rectangle 1475" width="23.232" height="3.03" transform="translate(14548.07 6055.112)"></rect><rect id="Rectangle_1476" data-name="Rectangle 1476" width="26.262" height="2.02" transform="translate(14552.11 5993.497)"></rect><path id="Path_3684" data-name="Path 3684" d="M24.188,67.923a1.387,1.387,0,0,0,.832-.277l6.12-4.59A34.545,34.545,0,0,0,44.48,41.346l1.875-10.624a1.387,1.387,0,0,0-.713-1.464l-20.8-11.094a1.387,1.387,0,0,0-1.3,0L2.735,29.257a1.387,1.387,0,0,0-.713,1.464l1.86,10.549A34.57,34.57,0,0,0,17.056,62.854l6.3,4.791A1.387,1.387,0,0,0,24.188,67.923ZM6.612,40.788,4.927,31.231,24.188,20.958,43.448,31.231l-1.7,9.632A31.784,31.784,0,0,1,29.475,60.832L24.188,64.8l-5.467-4.153A31.805,31.805,0,0,1,6.612,40.788Z" transform="translate(14512 5992.961)"></path><path id="Union_113" data-name="Union 113" d="M15.8,37.063l-4.621-3.506A25.728,25.728,0,0,1,1.387,17.495L.021,9.761A1.387,1.387,0,0,1,.734,8.3L7.668,4.6v.008L15.988.167a1.387,1.387,0,0,1,1.3,0l8.321,4.438h0l6.934,3.7a1.387,1.387,0,0,1,.713,1.466l-1.376,7.791a25.7,25.7,0,0,1-9.926,16.151L17.473,37.07a1.387,1.387,0,0,1-1.671,0ZM2.926,10.271l1.191,6.745a22.952,22.952,0,0,0,8.737,14.331l3.787,2.879,3.65-2.737a22.952,22.952,0,0,0,8.857-14.422l1.2-6.8-5.9-3.149v.01l-7.81-4.174L8.57,7.272v-.01Z" transform="translate(14519.547 6017.118)"></path><path id="Path_3687" data-name="Path 3687" d="M18.417,43.735h.053a1.387,1.387,0,0,0,1.043-.473L29.22,32.168l-2.08-1.826-8.581,9.807-3.14-4.18L13.2,37.634l4.16,5.547A1.387,1.387,0,0,0,18.417,43.735Z" transform="translate(14516.331 5997.735)"></path></g></g></svg> 